# Blender v2.82 (sub 7) OBJ File: 'untitled.blend'
# www.blender.org
mtllib Spjut.mtl
o Cube
v 0.009625 0.703936 -0.023236
v 0.009625 -0.789996 -0.023236
v 0.004907 0.703936 -0.024668
v 0.004907 -0.789996 -0.024668
v 0.000000 0.703936 -0.025151
v 0.000000 -0.789996 -0.025151
v 0.013973 -0.789996 -0.020912
v 0.013973 0.703936 -0.020912
v 0.017784 -0.789996 -0.017785
v 0.017784 0.703936 -0.017785
v 0.020912 -0.789996 -0.013973
v 0.020912 0.703936 -0.013973
v 0.023236 -0.789996 -0.009625
v 0.023236 0.703936 -0.009625
v 0.024667 -0.789996 -0.004907
v 0.024667 0.703936 -0.004907
v 0.025151 -0.789996 -0.000000
v 0.025151 0.703936 -0.000000
v 0.024667 -0.789996 0.004906
v 0.024667 0.703936 0.004906
v 0.023236 -0.789996 0.009624
v 0.023236 0.703936 0.009624
v 0.020912 -0.789996 0.013973
v 0.020912 0.703936 0.013973
v 0.017784 -0.789996 0.017784
v 0.017784 0.703936 0.017784
v 0.013973 -0.789996 0.020912
v 0.013973 0.703936 0.020912
v 0.009625 -0.789996 0.023236
v 0.009625 0.703936 0.023236
v 0.004907 -0.789996 0.024667
v 0.004907 0.703936 0.024667
v 0.000000 -0.789996 0.025150
v 0.000000 0.703936 0.025150
v -0.004907 -0.789996 0.024667
v -0.004907 0.703936 0.024667
v -0.009625 -0.789996 0.023236
v -0.009625 0.703936 0.023236
v -0.013973 -0.789996 0.020912
v -0.013973 0.703936 0.020912
v -0.017784 -0.789996 0.017784
v -0.017784 0.703936 0.017784
v -0.020912 -0.789996 0.013973
v -0.020912 0.703936 0.013973
v -0.023236 -0.789996 0.009624
v -0.023236 0.703936 0.009624
v -0.024667 -0.789996 0.004906
v -0.024667 0.703936 0.004906
v -0.025151 -0.789996 -0.000000
v -0.025151 0.703936 -0.000000
v -0.024667 -0.789996 -0.004907
v -0.024667 0.703936 -0.004907
v -0.023236 -0.789996 -0.009625
v -0.023236 0.703936 -0.009625
v -0.020912 -0.789996 -0.013973
v -0.020912 0.703936 -0.013973
v -0.017784 -0.789996 -0.017785
v -0.017784 0.703936 -0.017785
v -0.013973 -0.789996 -0.020912
v -0.013973 0.703936 -0.020912
v -0.009625 -0.789996 -0.023237
v -0.009625 0.703936 -0.023237
v -0.004907 -0.789996 -0.024668
v -0.004907 0.703936 -0.024668
v 0.000000 0.689903 -0.036066
v 0.007036 0.689903 -0.035373
v 0.013802 0.689903 -0.033320
v 0.020037 0.689903 -0.029988
v 0.025502 0.689903 -0.025502
v 0.029987 0.689903 -0.020037
v 0.033320 0.689903 -0.013802
v 0.035373 0.689903 -0.007036
v 0.036066 0.689903 -0.000000
v 0.035373 0.689903 0.007036
v 0.033320 0.689903 0.013801
v 0.029987 0.689903 0.020037
v 0.025502 0.689903 0.025502
v 0.020037 0.689903 0.029987
v 0.013802 0.689903 0.033320
v 0.007036 0.689903 0.035372
v 0.000000 0.689903 0.036065
v -0.007036 0.689903 0.035372
v -0.013802 0.689903 0.033320
v -0.020037 0.689903 0.029987
v -0.025502 0.689903 0.025502
v -0.029987 0.689903 0.020037
v -0.033320 0.689903 0.013801
v 0.000000 0.832556 -0.000000
v -0.035372 0.689903 0.007036
v -0.036065 0.689903 -0.000000
v -0.035372 0.689903 -0.007036
v -0.033320 0.689903 -0.013802
v -0.029987 0.689903 -0.020037
v -0.025502 0.689903 -0.025502
v -0.020037 0.689903 -0.029988
v -0.013801 0.689903 -0.033320
v -0.007036 0.689903 -0.035373
vt 0.080294 0.080294
vt 0.250000 0.250000
vt 0.050447 0.116663
vt 1.000000 0.500000
vt 1.000000 1.000000
vt 0.968750 1.000000
vt 0.968750 0.500000
vt 0.485388 0.203178
vt 0.471731 0.158156
vt 0.937500 1.000000
vt 0.937500 0.500000
vt 0.116663 0.050447
vt 0.906250 1.000000
vt 0.906250 0.500000
vt 0.875000 1.000000
vt 0.875000 0.500000
vt 0.490000 0.250000
vt 0.843750 1.000000
vt 0.843750 0.500000
vt 0.158156 0.028269
vt 0.812500 1.000000
vt 0.812500 0.500000
vt 0.781250 1.000000
vt 0.781250 0.500000
vt 0.485388 0.296822
vt 0.750000 1.000000
vt 0.750000 0.500000
vt 0.203178 0.014612
vt 0.718750 1.000000
vt 0.718750 0.500000
vt 0.687500 1.000000
vt 0.687500 0.500000
vt 0.471731 0.341844
vt 0.656250 1.000000
vt 0.656250 0.500000
vt 0.250000 0.010000
vt 0.625000 1.000000
vt 0.625000 0.500000
vt 0.593750 1.000000
vt 0.593750 0.500000
vt 0.449553 0.383337
vt 0.562500 1.000000
vt 0.562500 0.500000
vt 0.296822 0.014612
vt 0.531250 1.000000
vt 0.531250 0.500000
vt 0.500000 1.000000
vt 0.500000 0.500000
vt 0.419706 0.419706
vt 0.468750 1.000000
vt 0.468750 0.500000
vt 0.341844 0.028269
vt 0.437500 1.000000
vt 0.437500 0.500000
vt 0.406250 1.000000
vt 0.406250 0.500000
vt 0.383337 0.449553
vt 0.375000 1.000000
vt 0.375000 0.500000
vt 0.383337 0.050447
vt 0.343750 1.000000
vt 0.343750 0.500000
vt 0.312500 1.000000
vt 0.312500 0.500000
vt 0.341844 0.471731
vt 0.281250 1.000000
vt 0.281250 0.500000
vt 0.419706 0.080294
vt 0.250000 1.000000
vt 0.250000 0.500000
vt 0.218750 1.000000
vt 0.218750 0.500000
vt 0.296822 0.485388
vt 0.187500 1.000000
vt 0.187500 0.500000
vt 0.449553 0.116663
vt 0.156250 1.000000
vt 0.156250 0.500000
vt 0.125000 1.000000
vt 0.125000 0.500000
vt 0.250000 0.490000
vt 0.093750 1.000000
vt 0.093750 0.500000
vt 0.062500 1.000000
vt 0.062500 0.500000
vt 0.296822 0.485388
vt 0.250000 0.490000
vt 0.203179 0.485389
vt 0.158156 0.471731
vt 0.116663 0.449553
vt 0.080295 0.419706
vt 0.050447 0.383337
vt 0.028269 0.341844
vt 0.014612 0.296822
vt 0.010000 0.250000
vt 0.014611 0.203179
vt 0.028269 0.158156
vt 0.050447 0.116663
vt 0.080294 0.080294
vt 0.116663 0.050447
vt 0.158156 0.028269
vt 0.203178 0.014612
vt 0.250000 0.010000
vt 0.296822 0.014612
vt 0.341844 0.028269
vt 0.383337 0.050447
vt 0.419706 0.080294
vt 0.449553 0.116663
vt 0.471731 0.158156
vt 0.485388 0.203178
vt 0.490000 0.250000
vt 0.485388 0.296822
vt 0.471731 0.341844
vt 0.449553 0.383337
vt 0.419706 0.419706
vt 0.383337 0.449553
vt 0.341844 0.471731
vt 0.031250 1.000000
vt 0.031250 0.500000
vt 0.000000 1.000000
vt 0.000000 0.500000
vt 0.796822 0.485388
vt 0.841844 0.471731
vt 0.883337 0.449553
vt 0.919706 0.419706
vt 0.949553 0.383337
vt 0.971731 0.341844
vt 0.985388 0.296822
vt 0.990000 0.250000
vt 0.985388 0.203178
vt 0.971731 0.158156
vt 0.949553 0.116663
vt 0.919706 0.080294
vt 0.883337 0.050447
vt 0.841844 0.028269
vt 0.796822 0.014612
vt 0.750000 0.010000
vt 0.703178 0.014612
vt 0.658156 0.028269
vt 0.616663 0.050447
vt 0.580294 0.080294
vt 0.550447 0.116663
vt 0.528269 0.158156
vt 0.514611 0.203179
vt 0.510000 0.250000
vt 0.514612 0.296822
vt 0.528269 0.341844
vt 0.550447 0.383337
vt 0.580295 0.419706
vt 0.616663 0.449553
vt 0.658156 0.471731
vt 0.703179 0.485389
vt 0.750000 0.490000
vt 0.028269 0.158156
vt 0.014611 0.203179
vt 0.010000 0.250000
vt 0.014612 0.296822
vt 0.028269 0.341844
vt 0.050447 0.383337
vt 0.080295 0.419706
vt 0.116663 0.449553
vt 0.158156 0.471731
vt 0.203179 0.485389
vt 0.971731 0.158156
vt 0.949553 0.116663
vt 0.919706 0.080294
vt 0.883337 0.050447
vt 0.841844 0.028269
vt 0.796822 0.014612
vt 0.750000 0.010000
vt 0.703178 0.014612
vt 0.658156 0.028269
vt 0.616663 0.050447
vt 0.580294 0.080294
vt 0.550447 0.116663
vt 0.528269 0.158156
vt 0.514611 0.203179
vt 0.510000 0.250000
vt 0.514612 0.296822
vt 0.528269 0.341844
vt 0.550447 0.383337
vt 0.580295 0.419706
vt 0.616663 0.449553
vt 0.658156 0.471731
vt 0.703179 0.485389
vt 0.750000 0.490000
vt 0.796822 0.485388
vt 0.841844 0.471731
vt 0.883337 0.449553
vt 0.919706 0.419706
vt 0.949553 0.383337
vt 0.971731 0.341844
vt 0.985388 0.296822
vt 0.990000 0.250000
vt 0.985388 0.203178
vn -0.7496 0.2440 0.6152
vn 0.0980 0.0000 -0.9952
vn 0.9280 0.2440 0.2815
vn 0.2903 0.0000 -0.9569
vn -0.6152 0.2440 0.7496
vn 0.4714 0.0000 -0.8819
vn 0.6344 0.0000 -0.7730
vn 0.9651 0.2440 0.0951
vn 0.7730 0.0000 -0.6344
vn -0.4572 0.2440 0.8553
vn 0.8819 0.0000 -0.4714
vn 0.9569 0.0000 -0.2903
vn 0.9651 0.2440 -0.0951
vn 0.9952 0.0000 -0.0980
vn -0.2815 0.2440 0.9280
vn 0.9952 0.0000 0.0980
vn 0.9569 0.0000 0.2903
vn 0.9280 0.2440 -0.2815
vn 0.8819 0.0000 0.4714
vn -0.0951 0.2440 0.9651
vn 0.7730 0.0000 0.6344
vn 0.6344 0.0000 0.7730
vn 0.8553 0.2440 -0.4571
vn 0.4714 0.0000 0.8819
vn 0.0951 0.2440 0.9651
vn 0.2903 0.0000 0.9569
vn 0.0980 0.0000 0.9952
vn 0.7496 0.2440 -0.6152
vn -0.0980 0.0000 0.9952
vn 0.2815 0.2440 0.9280
vn -0.2903 0.0000 0.9569
vn -0.4714 0.0000 0.8819
vn 0.6152 0.2440 -0.7496
vn -0.6344 0.0000 0.7730
vn 0.4572 0.2440 0.8553
vn -0.7730 0.0000 0.6344
vn -0.8819 0.0000 0.4714
vn 0.4571 0.2440 -0.8553
vn -0.9569 0.0000 0.2903
vn 0.6152 0.2440 0.7496
vn -0.9952 0.0000 0.0980
vn -0.9952 0.0000 -0.0980
vn 0.2815 0.2440 -0.9280
vn -0.9569 0.0000 -0.2903
vn 0.7496 0.2440 0.6152
vn -0.8819 0.0000 -0.4714
vn -0.7730 0.0000 -0.6344
vn 0.0951 0.2440 -0.9651
vn -0.6344 0.0000 -0.7730
vn 0.8553 0.2440 0.4571
vn -0.4714 0.0000 -0.8819
vn 0.0000 1.0000 -0.0000
vn -0.2903 0.0000 -0.9569
vn -0.0980 0.0000 -0.9952
vn 0.0000 -1.0000 0.0000
vn -0.8553 0.2440 0.4571
vn -0.9280 0.2440 0.2815
vn -0.9651 0.2440 0.0951
vn -0.9651 0.2440 -0.0951
vn -0.9280 0.2440 -0.2815
vn -0.8553 0.2440 -0.4571
vn -0.7496 0.2440 -0.6152
vn -0.6152 0.2440 -0.7496
vn -0.4571 0.2440 -0.8553
vn -0.2815 0.2440 -0.9280
vn -0.0951 0.2440 -0.9651
usemtl Material
s off
f 85/1/1 88/2/1 86/3/1
f 6/4/2 5/5/2 3/6/2 4/7/2
f 74/8/3 88/2/3 75/9/3
f 4/7/4 3/6/4 1/10/4 2/11/4
f 84/12/5 88/2/5 85/1/5
f 2/11/6 1/10/6 8/13/6 7/14/6
f 7/14/7 8/13/7 10/15/7 9/16/7
f 73/17/8 88/2/8 74/8/8
f 9/16/9 10/15/9 12/18/9 11/19/9
f 83/20/10 88/2/10 84/12/10
f 11/19/11 12/18/11 14/21/11 13/22/11
f 13/22/12 14/21/12 16/23/12 15/24/12
f 72/25/13 88/2/13 73/17/13
f 15/24/14 16/23/14 18/26/14 17/27/14
f 82/28/15 88/2/15 83/20/15
f 17/27/16 18/26/16 20/29/16 19/30/16
f 19/30/17 20/29/17 22/31/17 21/32/17
f 71/33/18 88/2/18 72/25/18
f 21/32/19 22/31/19 24/34/19 23/35/19
f 81/36/20 88/2/20 82/28/20
f 23/35/21 24/34/21 26/37/21 25/38/21
f 25/38/22 26/37/22 28/39/22 27/40/22
f 70/41/23 88/2/23 71/33/23
f 27/40/24 28/39/24 30/42/24 29/43/24
f 80/44/25 88/2/25 81/36/25
f 29/43/26 30/42/26 32/45/26 31/46/26
f 31/46/27 32/45/27 34/47/27 33/48/27
f 69/49/28 88/2/28 70/41/28
f 33/48/29 34/47/29 36/50/29 35/51/29
f 79/52/30 88/2/30 80/44/30
f 35/51/31 36/50/31 38/53/31 37/54/31
f 37/54/32 38/53/32 40/55/32 39/56/32
f 68/57/33 88/2/33 69/49/33
f 39/56/34 40/55/34 42/58/34 41/59/34
f 78/60/35 88/2/35 79/52/35
f 41/59/36 42/58/36 44/61/36 43/62/36
f 43/62/37 44/61/37 46/63/37 45/64/37
f 67/65/38 88/2/38 68/57/38
f 45/64/39 46/63/39 48/66/39 47/67/39
f 77/68/40 88/2/40 78/60/40
f 47/67/41 48/66/41 50/69/41 49/70/41
f 49/70/42 50/69/42 52/71/42 51/72/42
f 66/73/43 88/2/43 67/65/43
f 51/72/44 52/71/44 54/74/44 53/75/44
f 76/76/45 88/2/45 77/68/45
f 53/75/46 54/74/46 56/77/46 55/78/46
f 55/78/47 56/77/47 58/79/47 57/80/47
f 65/81/48 88/2/48 66/73/48
f 57/80/49 58/79/49 60/82/49 59/83/49
f 75/9/50 88/2/50 76/76/50
f 59/83/51 60/82/51 62/84/51 61/85/51
f 3/86/52 5/87/52 64/88/52 62/89/52 60/90/52 58/91/52 56/92/52 54/93/52 52/94/52 50/95/52 48/96/52 46/97/52 44/98/52 42/99/52 40/100/52 38/101/52 36/102/52 34/103/52 32/104/52 30/105/52 28/106/52 26/107/52 24/108/52 22/109/52 20/110/52 18/111/52 16/112/52 14/113/52 12/114/52 10/115/52 8/116/52 1/117/52
f 61/85/53 62/84/53 64/118/53 63/119/53
f 63/119/54 64/118/54 5/120/54 6/121/54
f 4/122/55 2/123/55 7/124/55 9/125/55 11/126/55 13/127/55 15/128/55 17/129/55 19/130/55 21/131/55 23/132/55 25/133/55 27/134/55 29/135/55 31/136/55 33/137/55 35/138/55 37/139/55 39/140/55 41/141/55 43/142/55 45/143/55 47/144/55 49/145/55 51/146/55 53/147/55 55/148/55 57/149/55 59/150/55 61/151/55 63/152/55 6/153/55
f 86/3/56 88/2/56 87/154/56
f 87/154/57 88/2/57 89/155/57
f 89/155/58 88/2/58 90/156/58
f 90/156/59 88/2/59 91/157/59
f 91/157/60 88/2/60 92/158/60
f 92/158/61 88/2/61 93/159/61
f 93/159/62 88/2/62 94/160/62
f 94/160/63 88/2/63 95/161/63
f 95/161/64 88/2/64 96/162/64
f 96/162/65 88/2/65 97/163/65
f 97/163/66 88/2/66 65/81/66
f 75/164/55 76/165/55 77/166/55 78/167/55 79/168/55 80/169/55 81/170/55 82/171/55 83/172/55 84/173/55 85/174/55 86/175/55 87/176/55 89/177/55 90/178/55 91/179/55 92/180/55 93/181/55 94/182/55 95/183/55 96/184/55 97/185/55 65/186/55 66/187/55 67/188/55 68/189/55 69/190/55 70/191/55 71/192/55 72/193/55 73/194/55 74/195/55
