# Blender v2.82 (sub 7) OBJ File: 'Stol.blend'
# www.blender.org
mtllib Stol.mtl
o Cube
v 0.517143 0.082987 -0.077778
v 0.517143 -0.042458 -0.077778
v 0.517143 0.082987 0.722222
v 0.517143 -0.042458 0.722222
v -0.267143 0.082987 -0.077778
v -0.267143 -0.042458 -0.077778
v -0.267143 0.082987 0.722222
v -0.267143 -0.042458 0.722222
v -0.450000 -0.042458 0.722222
v 0.550000 -0.042458 0.722222
vt 0.625000 0.500000
vt 0.875000 0.500000
vt 0.875000 0.750000
vt 0.625000 0.750000
vt 0.375000 0.750000
vt 0.625000 1.000000
vt 0.375000 1.000000
vt 0.375000 0.000000
vt 0.625000 0.000000
vt 0.625000 0.250000
vt 0.375000 0.250000
vt 0.375000 0.500000
vt 0.375000 1.000000
vt 0.375000 0.750000
vt 0.000000 0.000000
vt 0.000000 0.000000
vt 0.000000 0.000000
vt 0.000000 0.000000
vt 0.000000 0.000000
vt 0.000000 0.000000
vn 0.0000 1.0000 0.0000
vn 0.0000 0.0000 1.0000
vn -1.0000 0.0000 0.0000
vn 1.0000 0.0000 0.0000
vn 0.0000 0.0000 -1.0000
vn 0.0000 -1.0000 -0.0000
usemtl Material
s off
f 1/1/1 5/2/1 7/3/1 3/4/1
f 4/5/2 3/4/2 7/6/2 8/7/2
f 8/8/3 7/9/3 5/10/3 6/11/3
f 2/12/4 1/1/4 3/4/4 4/5/4
f 6/11/5 5/10/5 1/1/5 2/12/5
f 4/5/2 8/7/2 9/13/2 10/14/2
f 6/15/6 2/16/6 4/17/6 10/18/6 9/19/6 8/20/6
o Cube.001
v 0.390174 -0.824073 0.082048
v 0.390174 0.068194 0.082048
v 0.390174 -0.824073 -0.037604
v 0.390174 0.068194 -0.037604
v 0.509826 -0.824073 0.082048
v 0.509826 0.068194 0.082048
v 0.509826 -0.824073 -0.037604
v 0.509826 0.068194 -0.037604
vt 0.375000 0.000000
vt 0.625000 0.000000
vt 0.625000 0.250000
vt 0.375000 0.250000
vt 0.625000 0.500000
vt 0.375000 0.500000
vt 0.625000 0.750000
vt 0.375000 0.750000
vt 0.625000 1.000000
vt 0.375000 1.000000
vt 0.125000 0.500000
vt 0.125000 0.750000
vt 0.875000 0.500000
vt 0.875000 0.750000
vn -1.0000 0.0000 0.0000
vn 0.0000 0.0000 -1.0000
vn 1.0000 0.0000 0.0000
vn 0.0000 0.0000 1.0000
vn 0.0000 -1.0000 0.0000
vn 0.0000 1.0000 0.0000
usemtl None
s off
f 11/21/7 12/22/7 14/23/7 13/24/7
f 13/24/8 14/23/8 18/25/8 17/26/8
f 17/26/9 18/25/9 16/27/9 15/28/9
f 15/28/10 16/27/10 12/29/10 11/30/10
f 13/31/11 17/26/11 15/28/11 11/32/11
f 18/25/12 14/33/12 12/34/12 16/27/12
o Cube.002
v 0.390174 -0.824073 0.682048
v 0.390174 0.068194 0.682048
v 0.390174 -0.824073 0.562396
v 0.390174 0.068194 0.562396
v 0.509826 -0.824073 0.682048
v 0.509826 0.068194 0.682048
v 0.509826 -0.824073 0.562396
v 0.509826 0.068194 0.562396
vt 0.375000 0.000000
vt 0.625000 0.000000
vt 0.625000 0.250000
vt 0.375000 0.250000
vt 0.625000 0.500000
vt 0.375000 0.500000
vt 0.625000 0.750000
vt 0.375000 0.750000
vt 0.625000 1.000000
vt 0.375000 1.000000
vt 0.125000 0.500000
vt 0.125000 0.750000
vt 0.875000 0.500000
vt 0.875000 0.750000
vn -1.0000 0.0000 0.0000
vn 0.0000 0.0000 -1.0000
vn 1.0000 0.0000 0.0000
vn 0.0000 0.0000 1.0000
vn 0.0000 -1.0000 0.0000
vn 0.0000 1.0000 0.0000
usemtl None
s off
f 19/35/13 20/36/13 22/37/13 21/38/13
f 21/38/14 22/37/14 26/39/14 25/40/14
f 25/40/15 26/39/15 24/41/15 23/42/15
f 23/42/16 24/41/16 20/43/16 19/44/16
f 21/45/17 25/40/17 23/42/17 19/46/17
f 26/39/18 22/47/18 20/48/18 24/41/18
o Cube.004
v -0.259826 -0.824073 0.082048
v -0.259826 0.068194 0.082048
v -0.259826 -0.824073 -0.037604
v -0.259826 0.068194 -0.037604
v -0.140174 -0.824073 0.082048
v -0.140174 0.068194 0.082048
v -0.140174 -0.824073 -0.037604
v -0.140174 0.068194 -0.037604
vt 0.375000 0.000000
vt 0.625000 0.000000
vt 0.625000 0.250000
vt 0.375000 0.250000
vt 0.625000 0.500000
vt 0.375000 0.500000
vt 0.625000 0.750000
vt 0.375000 0.750000
vt 0.625000 1.000000
vt 0.375000 1.000000
vt 0.125000 0.500000
vt 0.125000 0.750000
vt 0.875000 0.500000
vt 0.875000 0.750000
vn -1.0000 0.0000 0.0000
vn 0.0000 0.0000 -1.0000
vn 1.0000 0.0000 0.0000
vn 0.0000 0.0000 1.0000
vn 0.0000 -1.0000 0.0000
vn 0.0000 1.0000 0.0000
usemtl None
s off
f 27/49/19 28/50/19 30/51/19 29/52/19
f 29/52/20 30/51/20 34/53/20 33/54/20
f 33/54/21 34/53/21 32/55/21 31/56/21
f 31/56/22 32/55/22 28/57/22 27/58/22
f 29/59/23 33/54/23 31/56/23 27/60/23
f 34/53/24 30/61/24 28/62/24 32/55/24
o Cube.003
v -0.259826 -0.824073 0.682048
v -0.259826 0.068194 0.682048
v -0.259826 -0.824073 0.562396
v -0.259826 0.068194 0.562396
v -0.140174 -0.824073 0.682048
v -0.140174 0.068194 0.682048
v -0.140174 -0.824073 0.562396
v -0.140174 0.068194 0.562396
vt 0.375000 0.000000
vt 0.625000 0.000000
vt 0.625000 0.250000
vt 0.375000 0.250000
vt 0.625000 0.500000
vt 0.375000 0.500000
vt 0.625000 0.750000
vt 0.375000 0.750000
vt 0.625000 1.000000
vt 0.375000 1.000000
vt 0.125000 0.500000
vt 0.125000 0.750000
vt 0.875000 0.500000
vt 0.875000 0.750000
vn -1.0000 0.0000 0.0000
vn 0.0000 0.0000 -1.0000
vn 1.0000 0.0000 0.0000
vn 0.0000 0.0000 1.0000
vn 0.0000 -1.0000 0.0000
vn 0.0000 1.0000 0.0000
usemtl None
s off
f 35/63/25 36/64/25 38/65/25 37/66/25
f 37/66/26 38/65/26 42/67/26 41/68/26
f 41/68/27 42/67/27 40/69/27 39/70/27
f 39/70/28 40/69/28 36/71/28 35/72/28
f 37/73/29 41/68/29 39/70/29 35/74/29
f 42/67/30 38/75/30 36/76/30 40/69/30
o Cube.006
v 0.390174 0.071506 0.682048
v 0.390174 0.963773 0.682048
v 0.390174 0.071506 0.562396
v 0.390174 0.963773 0.562396
v 0.509826 0.071506 0.682048
v 0.509826 0.963773 0.682048
v 0.509826 0.071506 0.562396
v 0.509826 0.963773 0.562396
vt 0.375000 0.000000
vt 0.625000 0.000000
vt 0.625000 0.250000
vt 0.375000 0.250000
vt 0.625000 0.500000
vt 0.375000 0.500000
vt 0.625000 0.750000
vt 0.375000 0.750000
vt 0.625000 1.000000
vt 0.375000 1.000000
vt 0.125000 0.500000
vt 0.125000 0.750000
vt 0.875000 0.500000
vt 0.875000 0.750000
vn -1.0000 0.0000 0.0000
vn 0.0000 0.0000 -1.0000
vn 1.0000 0.0000 0.0000
vn 0.0000 0.0000 1.0000
vn 0.0000 -1.0000 0.0000
vn 0.0000 1.0000 0.0000
usemtl None
s off
f 43/77/31 44/78/31 46/79/31 45/80/31
f 45/80/32 46/79/32 50/81/32 49/82/32
f 49/82/33 50/81/33 48/83/33 47/84/33
f 47/84/34 48/83/34 44/85/34 43/86/34
f 45/87/35 49/82/35 47/84/35 43/88/35
f 50/81/36 46/89/36 44/90/36 48/83/36
o Cube.005
v -0.259826 0.071506 0.682048
v -0.259826 0.963773 0.682048
v -0.259826 0.071506 0.562396
v -0.259826 0.963773 0.562396
v -0.140174 0.071506 0.682048
v -0.140174 0.963773 0.682048
v -0.140174 0.071506 0.562396
v -0.140174 0.963773 0.562396
vt 0.375000 0.000000
vt 0.625000 0.000000
vt 0.625000 0.250000
vt 0.375000 0.250000
vt 0.625000 0.500000
vt 0.375000 0.500000
vt 0.625000 0.750000
vt 0.375000 0.750000
vt 0.625000 1.000000
vt 0.375000 1.000000
vt 0.125000 0.500000
vt 0.125000 0.750000
vt 0.875000 0.500000
vt 0.875000 0.750000
vn -1.0000 0.0000 0.0000
vn 0.0000 0.0000 -1.0000
vn 1.0000 0.0000 0.0000
vn 0.0000 0.0000 1.0000
vn 0.0000 -1.0000 0.0000
vn 0.0000 1.0000 0.0000
usemtl None
s off
f 51/91/37 52/92/37 54/93/37 53/94/37
f 53/94/38 54/93/38 58/95/38 57/96/38
f 57/96/39 58/95/39 56/97/39 55/98/39
f 55/98/40 56/97/40 52/99/40 51/100/40
f 53/101/41 57/96/41 55/98/41 51/102/41
f 58/95/42 54/103/42 52/104/42 56/97/42
o Cube.008
v -0.182710 0.371142 0.665498
v 0.432710 0.371142 0.665498
v -0.182710 0.371142 0.578947
v 0.432710 0.371142 0.578947
v -0.182710 0.284591 0.665498
v 0.432710 0.284591 0.665498
v -0.182710 0.284591 0.578947
v 0.432710 0.284591 0.578947
vt 0.375000 0.000000
vt 0.625000 0.000000
vt 0.625000 0.250000
vt 0.375000 0.250000
vt 0.625000 0.500000
vt 0.375000 0.500000
vt 0.625000 0.750000
vt 0.375000 0.750000
vt 0.625000 1.000000
vt 0.375000 1.000000
vt 0.125000 0.500000
vt 0.125000 0.750000
vt 0.875000 0.500000
vt 0.875000 0.750000
vn -0.0000 1.0000 0.0000
vn 0.0000 0.0000 -1.0000
vn 0.0000 -1.0000 0.0000
vn -0.0000 0.0000 1.0000
vn -1.0000 0.0000 0.0000
vn 1.0000 0.0000 0.0000
usemtl None
s off
f 59/105/43 60/106/43 62/107/43 61/108/43
f 61/108/44 62/107/44 66/109/44 65/110/44
f 65/110/45 66/109/45 64/111/45 63/112/45
f 63/112/46 64/111/46 60/113/46 59/114/46
f 61/115/47 65/110/47 63/112/47 59/116/47
f 66/109/48 62/117/48 60/118/48 64/111/48
o Cube.007
v -0.182710 0.946081 0.665498
v 0.432710 0.946081 0.665498
v -0.182710 0.946081 0.578947
v 0.432710 0.946081 0.578947
v -0.182710 0.859530 0.665498
v 0.432710 0.859530 0.665498
v -0.182710 0.859530 0.578947
v 0.432710 0.859530 0.578947
vt 0.375000 0.000000
vt 0.625000 0.000000
vt 0.625000 0.250000
vt 0.375000 0.250000
vt 0.625000 0.500000
vt 0.375000 0.500000
vt 0.625000 0.750000
vt 0.375000 0.750000
vt 0.625000 1.000000
vt 0.375000 1.000000
vt 0.125000 0.500000
vt 0.125000 0.750000
vt 0.875000 0.500000
vt 0.875000 0.750000
vn -0.0000 1.0000 0.0000
vn 0.0000 0.0000 -1.0000
vn 0.0000 -1.0000 0.0000
vn -0.0000 0.0000 1.0000
vn -1.0000 0.0000 0.0000
vn 1.0000 0.0000 0.0000
usemtl None
s off
f 67/119/49 68/120/49 70/121/49 69/122/49
f 69/122/50 70/121/50 74/123/50 73/124/50
f 73/124/51 74/123/51 72/125/51 71/126/51
f 71/126/52 72/125/52 68/127/52 67/128/52
f 69/129/53 73/124/53 71/126/53 67/130/53
f 74/123/54 70/131/54 68/132/54 72/125/54
